<svg id="Capa_1" enable-background="new 0 0 499.979 499.979" height="512" viewBox="0 0 499.979 499.979" width="512" xmlns="http://www.w3.org/2000/svg"><g><path d="m46.786 26.289c-4.142 0-7.495 3.358-7.495 7.5s3.363 7.5 7.505 7.5c4.143 0 7.5-3.358 7.5-7.5s-3.357-7.5-7.5-7.5z"/><path d="m78.16 26.289c-4.142 0-7.495 3.358-7.495 7.5s3.363 7.5 7.505 7.5c4.143 0 7.5-3.358 7.5-7.5s-3.357-7.5-7.5-7.5z"/><path d="m109.534 26.289c-4.142 0-7.495 3.358-7.495 7.5s3.363 7.5 7.505 7.5c4.143 0 7.5-3.358 7.5-7.5s-3.357-7.5-7.5-7.5z"/><path d="m480.246 428.379-14.084-14.183v-385.786c0-15.666-12.745-28.41-28.41-28.41h-401.853c-15.665 0-28.409 12.745-28.409 28.41v286.344c0 4.142 3.357 7.5 7.5 7.5s7.5-3.358 7.5-7.5v-247.176h322.615c4.143 0 7.5-3.358 7.5-7.5s-3.357-7.5-7.5-7.5h-322.615v-24.168c0-7.395 6.016-13.41 13.409-13.41h401.854c7.395 0 13.41 6.016 13.41 13.41v24.168h-71.058c-4.143 0-7.5 3.358-7.5 7.5s3.357 7.5 7.5 7.5h71.058v331.513l-25.338-25.516c-6.451-6.446-16.63-6.925-23.65-1.464l-15.045-15.036c3.916-5.326 6.035-11.734 6.035-18.47 0-8.354-3.255-16.208-9.164-22.115l-11.272-11.264c8.208-18.424 12.781-38.809 12.781-60.244 0-81.938-66.699-148.598-148.684-148.598s-148.684 66.661-148.684 148.599c0 81.937 66.699 148.598 148.684 148.598 21.503 0 41.952-4.592 60.424-12.837l11.256 11.25c6.094 6.091 14.097 9.136 22.102 9.135 6.869-.001 13.736-2.251 19.397-6.737l14.939 14.93c-2.441 3.128-3.778 6.947-3.778 10.977 0 .814.073 1.615.179 2.409h-325.446c-7.394 0-13.409-6.016-13.409-13.41v-58.715c0-4.142-3.357-7.5-7.5-7.5s-7.5 3.358-7.5 7.5v58.715c0 15.665 12.744 28.41 28.409 28.41h335.226l18.693 18.825c2.922 2.941 7.671 2.956 10.606.037 2.939-2.918 2.956-7.667.038-10.606l-23.445-23.61c-.741-.741-.852-1.605-.852-2.055 0-.449.11-1.313.852-2.054l34.08-34.059c1.137-1.136 2.985-1.138 4.103-.02l54.422 54.804c5.073 5.07 7.867 11.811 7.867 18.979 0 7.169-2.794 13.91-7.875 18.988l-.2.2c-10.476 10.468-27.521 10.469-37.975.021l-6.302-6.347c-2.919-2.939-7.666-2.956-10.606-.038-2.939 2.918-2.956 7.667-.038 10.607l6.322 6.367c8.161 8.155 18.877 12.233 29.598 12.232s21.447-4.081 29.612-12.241l.2-.201c7.908-7.903 12.264-18.412 12.264-29.589.001-11.177-4.355-21.685-12.243-29.569zm-104.801-29.77-14.678-14.669 16.012-16.002 14.678 14.669zm-272.303-153.626c0-73.667 59.971-133.598 133.684-133.598s133.684 59.932 133.684 133.598-59.971 133.598-133.684 133.598-133.684-59.932-133.684-133.598zm215.968 136.401-7.825-7.82c22.477-13.052 41.237-31.817 54.274-54.296l7.839 7.834c3.074 3.073 4.768 7.159 4.768 11.505 0 4.347-1.693 8.433-4.768 11.505l-31.292 31.273c-6.341 6.336-16.657 6.334-22.996-.001z"/><path d="m236.825 132.965c-13.869 0-27.408 2.503-40.243 7.439-3.866 1.487-5.795 5.826-4.308 9.692 1.486 3.865 5.822 5.795 9.692 4.308 11.109-4.273 22.838-6.439 34.858-6.439 53.53 0 97.081 43.522 97.081 97.018s-43.549 97.017-97.08 97.017-97.08-43.521-97.08-97.017c0-28.3 12.325-55.123 33.816-73.592 3.141-2.7 3.499-7.435.8-10.576-2.699-3.142-7.434-3.499-10.577-.8-24.81 21.321-39.039 52.291-39.039 84.968 0 61.767 50.279 112.017 112.08 112.017 61.802 0 112.081-50.25 112.081-112.017s-50.279-112.018-112.081-112.018z"/><path d="m304.035 204.882c0-3.68-1.434-7.139-4.036-9.739l-13.311-13.303c-5.368-5.366-14.105-5.367-19.478 0l-30.386 30.367-30.386-30.367c-5.367-5.366-14.104-5.367-19.478 0l-13.311 13.303c-2.603 2.601-4.036 6.06-4.036 9.739s1.434 7.138 4.036 9.739l30.38 30.361-30.38 30.361c-2.603 2.601-4.036 6.06-4.036 9.739s1.434 7.138 4.036 9.739l13.312 13.304c2.686 2.682 6.212 4.023 9.738 4.023s7.054-1.342 9.738-4.025l30.386-30.367 30.387 30.369c5.371 5.364 14.107 5.365 19.477-.001l13.31-13.301c2.604-2.602 4.037-6.061 4.037-9.74s-1.434-7.139-4.036-9.74l-30.38-30.36 30.379-30.36c2.605-2.602 4.038-6.061 4.038-9.741zm-50.327 34.796c-1.407 1.406-2.198 3.315-2.198 5.305s.791 3.898 2.198 5.305l34.816 34.795-11.575 11.568-34.822-34.802c-2.928-2.927-7.676-2.927-10.604 0l-34.822 34.802-11.575-11.568 34.816-34.795c1.407-1.407 2.198-3.315 2.198-5.305s-.791-3.898-2.198-5.305l-34.816-34.796 11.575-11.568 34.822 34.802c2.928 2.927 7.676 2.927 10.604 0l34.822-34.802 11.575 11.568z"/></g></svg>